<svg width="230" height="82" viewBox="0 0 230 82" fill="none" xmlns="http://www.w3.org/2000/svg">
<path d="M33.4319 16H0V24.794H33.4319V16Z" fill="#0089FF"/>
<path d="M0 38.4357V66H10.671V47.2445H31.2149V38.4357H0Z" fill="#0089FF"/>
<path d="M97.2088 33.2315C95.6875 22.2443 87.2358 15.8693 76.2727 15.8693C63.3537 15.8693 53.6222 25.2869 53.6222 41.2727C53.6222 57.2344 63.233 66.6761 76.2727 66.6761C88.0327 66.6761 95.8324 59.0696 97.2088 49.6278L88.1776 49.5795C87.0426 55.375 82.3097 58.6349 76.3935 58.6349C68.3764 58.6349 62.6293 52.6222 62.6293 41.2727C62.6293 30.1165 68.3281 23.9105 76.4176 23.9105C82.4304 23.9105 87.1392 27.3153 88.1776 33.2315H97.2088ZM112.068 44.267C112.068 38.9062 115.4 35.8153 120.085 35.8153C124.673 35.8153 127.378 38.7372 127.378 43.7358V66H136.119V42.3835C136.119 33.4247 131.048 28.4261 123.345 28.4261C117.646 28.4261 114.024 31.0099 112.31 35.2116H111.875V16.5455H103.327V66H112.068V44.267ZM154.003 66.7486C159.823 66.7486 163.3 64.0199 164.894 60.9048H165.183V66H173.587V41.1761C173.587 31.3722 165.594 28.4261 158.519 28.4261C150.719 28.4261 144.73 31.9034 142.799 38.6648L150.96 39.8239C151.83 37.2884 154.293 35.1151 158.567 35.1151C162.624 35.1151 164.845 37.1918 164.845 40.8381V40.983C164.845 43.4943 162.213 43.6151 155.669 44.3153C148.473 45.0881 141.591 47.2372 141.591 55.5923C141.591 62.8849 146.928 66.7486 154.003 66.7486ZM156.273 60.3253C152.627 60.3253 150.019 58.6591 150.019 55.4474C150.019 52.0909 152.941 50.6903 156.852 50.1349C159.147 49.821 163.735 49.2415 164.87 48.3239V52.6946C164.87 56.8239 161.537 60.3253 156.273 60.3253ZM180.677 66H189.418V44.1946C189.418 39.4858 192.968 36.1534 197.773 36.1534C199.246 36.1534 201.081 36.419 201.83 36.6605V28.6193C201.033 28.4744 199.657 28.3778 198.691 28.3778C194.441 28.3778 190.891 30.7926 189.539 35.0909H189.152V28.9091H180.677V66ZM226.451 28.9091H219.134V20.0227H210.393V28.9091H205.129V35.6705H210.393V56.2926C210.345 63.2713 215.416 66.7003 221.984 66.5071C224.471 66.4347 226.185 65.9517 227.127 65.6378L225.654 58.804C225.171 58.9247 224.181 59.142 223.095 59.142C220.897 59.142 219.134 58.3693 219.134 54.8438V35.6705H226.451V28.9091Z" fill="black"/>
</svg>
